<?xml version="1.0" encoding="UTF-8" standalone="no"?>
<svg
   width="654.75055"
   height="441.15036"
   viewBox="0 0 654.75055 441.15036"
   version="1.1"
   xml:space="preserve"
   style="clip-rule:evenodd;fill-rule:evenodd;stroke-linecap:square;stroke-miterlimit:2"
   id="svg114"
   sodipodi:docname="gelder-logo-2023.svg"
   inkscape:version="1.2.1 (9c6d41e410, 2022-07-14)"
   xmlns:inkscape="http://www.inkscape.org/namespaces/inkscape"
   xmlns:sodipodi="http://sodipodi.sourceforge.net/DTD/sodipodi-0.dtd"
   xmlns="http://www.w3.org/2000/svg"
   xmlns:svg="http://www.w3.org/2000/svg"><defs
   id="defs118">
        
        
        
        
        
        
        
        
        
        
        
        
        
        
        
        
        
        
        
        
        
        
        
        
        
        
        
        
        
        
        
        
        
        
        
        
        
        
        
        
        
        
        
        
        
        
        
        
        
        
        
        
        
        
        
    </defs><sodipodi:namedview
   id="namedview116"
   pagecolor="#ffffff"
   bordercolor="#000000"
   borderopacity="0.25"
   inkscape:showpageshadow="2"
   inkscape:pageopacity="0.0"
   inkscape:pagecheckerboard="0"
   inkscape:deskcolor="#d1d1d1"
   showgrid="false"
   inkscape:zoom="1.069499"
   inkscape:cx="79.476465"
   inkscape:cy="358.1116"
   inkscape:window-width="2560"
   inkscape:window-height="1369"
   inkscape:window-x="2552"
   inkscape:window-y="-8"
   inkscape:window-maximized="1"
   inkscape:current-layer="svg114" />
    <g
   id="g1059"
   transform="translate(0,-0.2500002)"><path
     d="m 137.87511,258.94187 v 60.16672 c -6.83751,3.50417 -13.23751,6.30834 -19.20002,8.42084 -5.96667,2.1125 -11.49167,3.71667 -16.57917,4.81667 -5.091676,1.0875 -9.675013,1.82083 -13.745849,2.1875 -4.070837,0.35833 -7.63334,0.54583 -10.687509,0.54583 -10.620842,0 -20.654183,-1.74583 -30.104191,-5.2375 C 38.10003,326.35443 29.850024,321.22942 22.795852,314.46275 15.737513,307.70025 10.175008,299.40857 6.1041715,289.5919 2.033335,279.77522 0,268.47105 0,255.66687 0,244.03353 1.8875015,233.12935 5.6708379,222.94601 9.4500076,212.76684 14.833345,203.89183 21.812517,196.32932 c 6.983339,-7.55834 15.341679,-13.52501 25.087521,-17.88751 9.741674,-4.3625 20.579183,-6.54584 32.508359,-6.54584 4.50417,0 9.562508,0.475 15.162512,1.41667 5.595841,0.95 11.016671,2.76667 16.250011,5.45417 5.23751,2.69584 9.96251,6.475 14.18335,11.34584 4.21667,4.87501 7.2,11.30834 8.94167,19.30835 -0.72917,0.29167 -1.6,0.62083 -2.61667,0.97917 -1.02083,0.36667 -1.89167,0.69167 -2.61667,0.98333 -1.74583,-2.325 -3.85833,-4.90833 -6.32917,-7.74584 -2.475,-2.8375 -5.52917,-5.4875 -9.16251,-7.9625 -3.6375,-2.47084 -8.0375,-4.57917 -13.20001,-6.32501 -5.162501,-1.74583 -11.233339,-2.62083 -18.212511,-2.62083 -7.712506,0 -15.091679,1.38333 -22.145851,4.15417 -7.054173,2.76666 -13.345844,6.95417 -18.870849,12.56251 -5.529171,5.6125 -9.925008,12.60417 -13.195844,20.97918 -3.275002,8.37501 -4.912504,18.17501 -4.912504,29.38752 0,8.30418 1.125001,16.50002 3.383337,24.58336 2.254168,8.0875 5.783337,15.33751 10.579175,21.74168 4.800003,6.40834 10.912508,11.61668 18.325014,15.62501 7.42084,4.00834 16.29168,6.00834 26.616688,6.00834 6.254172,0 12.40001,-0.76667 18.433345,-2.3 6.03751,-1.53334 11.89168,-3.6125 17.56252,-6.24584 V 272.25022 H 82.462566 v -13.30835 z"
     style="fill:#405c59;fill-rule:nonzero;stroke-width:4.16667"
     id="path2" /><path
     d="m 246.73353,263.08771 c -0.4375,-6.98334 -1.80833,-12.68751 -4.11667,-17.12501 -2.3125,-4.43751 -5.09584,-7.96251 -8.34584,-10.58335 -3.25417,-2.61666 -6.60834,-4.39583 -10.07501,-5.34583 -3.47083,-0.94167 -6.575,-1.41667 -9.32084,-1.41667 -3.325,0 -6.79167,0.58333 -10.40417,1.74583 -3.61251,1.16667 -7.04168,3.12917 -10.29168,5.89168 -3.25417,2.7625 -6.07084,6.325 -8.45417,10.6875 -2.38334,4.36251 -3.9375,9.74585 -4.65834,16.14585 z m -65.88339,11.99584 c 0.14167,1.60417 0.325,3.56667 0.54584,5.89167 0.21667,2.32917 0.65,4.83751 1.30833,7.52501 0.65417,2.69584 1.55834,5.52917 2.72501,8.50834 1.1625,2.98334 2.8375,5.85834 5.02083,8.61667 2.75834,3.64167 5.74167,6.43751 8.94168,8.40001 3.2,1.9625 6.21667,3.38334 9.05417,4.25834 2.8375,0.87083 5.34584,1.38333 7.52501,1.525 2.18333,0.14583 3.70833,0.21667 4.58333,0.21667 5.81667,0 10.94168,-0.90417 15.37918,-2.72501 4.43751,-1.81666 8.21668,-3.92917 11.34584,-6.32917 3.12501,-2.4 5.63334,-4.87084 7.52501,-7.41667 1.8875,-2.54167 3.34167,-4.6125 4.3625,-6.21667 0.725,0.29166 1.63751,0.65417 2.72917,1.0875 1.0875,0.4375 1.99584,0.80417 2.72501,1.09167 -0.58334,2.0375 -1.63751,5.02083 -3.16251,8.94584 -1.525,3.92917 -4.10833,7.85417 -7.74167,11.77917 -3.6375,3.92917 -8.47917,7.38334 -14.51251,10.36668 -6.03751,2.975 -13.85001,4.47083 -23.45002,4.47083 -7.41667,0 -14.47501,-1.2375 -21.16252,-3.7125 -6.69167,-2.47083 -12.60001,-6.175 -17.73335,-11.12501 -5.13333,-4.94167 -9.2375,-11.15834 -12.32501,-18.65001 -3.0875,-7.49167 -4.62917,-16.17918 -4.62917,-26.07086 0,-9.6 1.49167,-18.17918 4.47501,-25.74168 2.97917,-7.56251 6.97917,-13.92501 11.99584,-19.08752 5.02084,-5.1625 10.90834,-9.09167 17.67085,-11.78334 6.7625,-2.69167 13.85418,-4.03334 21.27085,-4.03334 7.125,0 13.59584,1.125 19.41668,3.37917 5.81251,2.25834 10.90834,5.34584 15.27085,9.27084 4.3625,3.92917 7.67084,8.25834 9.92917,12.98335 2.25,4.725 3.85,9.34584 4.79584,13.85001 0.94583,4.5125 1.45417,8.62084 1.525,12.32501 0.075,3.70833 0.1125,6.5125 0.1125,8.4 z"
     style="fill:#405c59;fill-rule:nonzero;stroke-width:4.16667"
     id="path4" /><rect
     x="287.52521"
     y="176.47514"
     width="19.637514"
     height="154.02095"
     style="fill:#405c59;fill-rule:nonzero;stroke-width:4.16667"
     id="rect6" /><path
     d="m 414.9295,243.05019 c -0.88334,-1.02083 -2.0125,-2.37083 -3.40417,-4.04583 -1.39167,-1.67917 -3.15,-3.24167 -5.27501,-4.70001 -2.12916,-1.45833 -4.69167,-2.73333 -7.69167,-3.82917 -3,-1.09166 -6.48334,-1.64166 -10.43751,-1.64166 -5.41667,0 -10.50834,1.27916 -15.26668,3.82917 -4.7625,2.55 -8.75417,6.22917 -11.975,11.04167 -1.61251,2.47917 -2.93334,5.17917 -3.95417,8.09167 -1.02501,2.91667 -1.79584,5.83334 -2.30834,8.74585 -0.51667,2.91666 -0.87917,5.65417 -1.1,8.2 -0.22083,2.55417 -0.325,4.77501 -0.325,6.67084 0,6.99584 0.69583,13.04584 2.08333,18.15001 1.39167,5.10418 3.11251,9.32918 5.16668,12.67918 2.925,4.67084 6.69583,8.38751 11.3125,11.15418 4.61251,2.775 9.99585,4.15833 16.15002,4.15833 3.36667,0 6.44167,-0.475 9.22917,-1.425 2.77917,-0.94583 5.30834,-2.075 7.57917,-3.3875 2.27084,-1.3125 4.24584,-2.69584 5.93334,-4.15417 1.67917,-1.45833 3.10834,-2.77084 4.28334,-3.9375 z m 19.63335,87.44591 H 414.9295 v -12.87085 c -1.31667,1.60001 -2.88334,3.42084 -4.70417,5.45418 -1.825,2.0375 -4.08334,3.925 -6.78334,5.67083 -2.69584,1.74584 -5.90417,3.20001 -9.62084,4.36667 -3.72084,1.15834 -8.13334,1.74167 -13.23751,1.74167 -7.28751,0 -13.88751,-1.38333 -19.79168,-4.14167 -5.90834,-2.7625 -10.97918,-6.6875 -15.20418,-11.78334 -4.22917,-5.08751 -7.51251,-11.19584 -9.84584,-18.32502 -2.32917,-7.125 -3.49584,-14.97501 -3.49584,-23.55835 0,-9.30834 1.35,-17.77918 4.04584,-25.41669 2.69583,-7.6375 6.30833,-14.17917 10.82917,-19.63334 4.51667,-5.45418 9.80418,-9.67085 15.85835,-12.65418 6.05,-2.97917 12.43334,-4.47084 19.13751,-4.47084 4.95834,0 9.25834,0.61667 12.90418,1.85417 3.65,1.23333 6.78334,2.725 9.40834,4.47084 2.62084,1.74583 4.775,3.56667 6.45001,5.45417 1.67916,1.89167 3.025,3.49167 4.05,4.8 v -54.97921 h 19.63335 z"
     style="fill:#405c59;fill-rule:nonzero;stroke-width:4.16667"
     id="path8" /><path
     d="m 546.4796,263.08771 c -0.4375,-6.98334 -1.8125,-12.68751 -4.11667,-17.12501 -2.3125,-4.43751 -5.09583,-7.96251 -8.34584,-10.58335 -3.25417,-2.61666 -6.60833,-4.39583 -10.075,-5.34583 -3.47084,-0.94167 -6.57918,-1.41667 -9.32501,-1.41667 -3.32084,0 -6.78751,0.58333 -10.40001,1.74583 -3.6125,1.16667 -7.04167,3.12917 -10.29167,5.89168 -3.25417,2.7625 -6.07084,6.325 -8.45418,10.6875 -2.38333,4.36251 -3.9375,9.74585 -4.65834,16.14585 z m -65.88755,11.99584 c 0.14167,1.60417 0.32917,3.56667 0.54583,5.89167 0.22084,2.32917 0.65417,4.83751 1.31251,7.52501 0.65416,2.69584 1.5625,5.52917 2.725,8.50834 1.1625,2.98334 2.8375,5.85834 5.01667,8.61667 2.7625,3.64167 5.74584,6.43751 8.94584,8.40001 3.19584,1.9625 6.22084,3.38334 9.05417,4.25834 2.83751,0.87083 5.34584,1.38333 7.52501,1.525 2.17917,0.14583 3.7125,0.21667 4.58334,0.21667 5.8125,0 10.94167,-0.90417 15.37918,-2.72501 4.43333,-1.81666 8.21667,-3.92917 11.34584,-6.32917 3.125,-2.4 5.63334,-4.87084 7.525,-7.41667 1.88751,-2.54167 3.34167,-4.6125 4.36251,-6.21667 0.725,0.29166 1.6375,0.65417 2.725,1.0875 1.09167,0.4375 2,0.80417 2.72917,1.09167 -0.58334,2.0375 -1.6375,5.02083 -3.1625,8.94584 -1.52501,3.92917 -4.10834,7.85417 -7.74168,11.77917 -3.6375,3.92917 -8.47917,7.38334 -14.51251,10.36668 -6.03334,2.975 -13.85001,4.47083 -23.45002,4.47083 -7.41667,0 -14.47084,-1.2375 -21.16251,-3.7125 -6.68751,-2.47083 -12.60001,-6.175 -17.73335,-11.12501 -5.12917,-4.94167 -9.24168,-11.15834 -12.32501,-18.65001 -3.0875,-7.49167 -4.62917,-16.17918 -4.62917,-26.07086 0,-9.6 1.4875,-18.17918 4.47083,-25.74168 2.98334,-7.56251 6.98334,-13.92501 12.00001,-19.08752 5.01667,-5.1625 10.90835,-9.09167 17.67085,-11.78334 6.76251,-2.69167 13.85001,-4.03334 21.27085,-4.03334 7.12501,0 13.59585,1.125 19.41252,3.37917 5.81667,2.25834 10.91251,5.34584 15.27501,9.27084 4.3625,3.92917 7.67084,8.25834 9.92917,12.98335 2.25001,4.725 3.85001,9.34584 4.79584,13.85001 0.94584,4.5125 1.45417,8.62084 1.525,12.32501 0.075,3.70833 0.1125,6.5125 0.1125,8.4 z"
     style="fill:#405c59;fill-rule:nonzero;stroke-width:4.16667"
     id="path10" /><path
     d="M 607.34215,330.4961 H 587.2713 V 219.45434 h 20.07085 v 15.27085 c 0.87084,-1.30834 2.10834,-2.97917 3.70834,-5.01667 1.6,-2.03334 3.5625,-4.00001 5.89167,-5.89167 2.325,-1.88751 5.05417,-3.52501 8.18334,-4.90834 3.125,-1.37917 6.65001,-2.07084 10.57918,-2.07084 2.90416,0 5.15833,0.25417 6.7625,0.7625 1.6,0.5125 3.19584,1.12917 4.79584,1.85417 v 17.88752 c -1.74167,-0.725 -4.07084,-1.67084 -6.97917,-2.83334 -2.91251,-1.1625 -6.25418,-1.74583 -10.03751,-1.74583 -3.34167,0 -6.32084,0.54583 -8.94168,1.6375 -2.61667,1.0875 -4.875,2.3625 -6.7625,3.81667 -1.89167,1.45417 -3.42084,2.94583 -4.58334,4.47083 -1.1625,1.52917 -2.0375,2.65417 -2.61667,3.38334 z"
     style="fill:#405c59;fill-rule:nonzero;stroke-width:4.16667"
     id="path12" /><path
     d="M 6.6250053,370.75863 H 24.275019 v 2.86667 H 10.029175 v 8.12501 h 13.279177 v 2.86666 H 10.029175 v 8.83751 h 14.354178 v 2.8625 H 6.6250053 Z"
     style="fill:#405c59;fill-rule:nonzero;stroke-width:4.16667"
     id="path14" /><path
     d="M 42.1167,396.31698 H 38.250031 L 29.22919,370.75863 h 3.687503 l 7.304173,22.15835 h 0.07083 l 7.370839,-22.15835 h 3.545836 z"
     style="fill:#405c59;fill-rule:nonzero;stroke-width:4.16667"
     id="path16" /><path
     d="m 57.487546,370.75863 h 17.645847 v 2.86667 H 60.887549 v 8.12501 h 13.279177 v 2.86666 H 60.887549 v 8.83751 h 14.354178 v 2.8625 H 57.487546 Z"
     style="fill:#405c59;fill-rule:nonzero;stroke-width:4.16667"
     id="path18" /><path
     d="m 93.408408,382.53364 c 3.183336,0 5.904171,-0.82083 5.904171,-4.54167 0,-2.50834 -1.358334,-4.36667 -4.545837,-4.36667 h -8.44584 v 8.90834 z M 82.916733,370.75863 h 12.029176 c 4.795837,0 7.766671,2.6125 7.766671,6.69584 0,3.075 -1.35833,5.61667 -4.437501,6.475 v 0.075 c 2.970831,0.57084 3.579171,2.75417 3.829171,5.26251 0.21667,2.50417 0.0708,5.29584 1.50417,7.05 h -3.791673 c -0.966668,-1.0375 -0.433334,-3.79167 -0.933335,-6.3 -0.358333,-2.50417 -0.966667,-4.61667 -4.258336,-4.61667 h -8.304174 v 10.91667 h -3.404169 z"
     style="fill:#405c59;fill-rule:nonzero;stroke-width:4.16667"
     id="path20" /><path
     d="m 120.23343,385.86698 v 10.45 h -3.4 v -10.45 l -9.87918,-15.10835 h 4.04584 l 7.65834,12.17084 7.47917,-12.17084 h 3.87084 z"
     style="fill:#405c59;fill-rule:nonzero;stroke-width:4.16667"
     id="path22" /><path
     d="m 142.22928,373.6253 h -8.52084 v -2.86667 h 20.43752 v 2.86667 h -8.51668 v 22.69168 h -3.4 z"
     style="fill:#405c59;fill-rule:nonzero;stroke-width:4.16667"
     id="path24" /><path
     d="m 160.53346,370.75863 h 3.40417 v 10.99168 h 13.45835 v -10.99168 h 3.4 v 25.55835 h -3.4 v -11.70001 h -13.45835 v 11.70001 h -3.40417 z"
     style="fill:#405c59;fill-rule:nonzero;stroke-width:4.16667"
     id="path26" /><rect
     x="190.07932"
     y="370.75864"
     width="3.4041693"
     height="25.558353"
     style="fill:#405c59;fill-rule:nonzero;stroke-width:4.16667"
     id="rect28" /><path
     d="m 202.73766,370.75863 h 3.61667 l 13.45835,20.72502 h 0.0708 v -20.72502 h 3.225 v 25.55835 h -3.725 L 206.0335,375.80863 h -0.0708 v 20.50835 h -3.225 z"
     style="fill:#405c59;fill-rule:nonzero;stroke-width:4.16667"
     id="path30" /><path
     d="m 251.29603,393.12948 c -1.97083,2.6875 -5.19583,3.8 -8.2,3.8 -7.62501,0 -12.17085,-6.23333 -12.17085,-12.89167 0,-7.44168 4.07917,-13.88335 12.17085,-13.88335 5.5875,0 10.02084,2.50417 10.99167,8.47918 h -3.40417 c -0.67916,-3.86667 -3.79167,-5.62084 -7.5875,-5.62084 -6.19584,0 -8.77084,5.37084 -8.77084,10.84584 0,5.3375 3.07917,10.20418 8.77084,10.20418 5.2625,0 8.40834,-3.68751 8.2,-8.34168 h -8.1625 v -2.8625 h 11.20001 v 13.45834 h -2.14584 z"
     style="fill:#405c59;fill-rule:nonzero;stroke-width:4.16667"
     id="path32" /><rect
     x="276.56271"
     y="370.75864"
     width="3.4000027"
     height="25.558353"
     style="fill:#405c59;fill-rule:nonzero;stroke-width:4.16667"
     id="rect34" /><path
     d="m 289.22523,370.75863 h 3.61667 l 13.45835,20.72502 h 0.0708 v -20.72502 h 3.225 v 25.55835 h -3.725 l -13.35001,-20.50835 h -0.0708 v 20.50835 h -3.225 z"
     style="fill:#405c59;fill-rule:nonzero;stroke-width:4.16667"
     id="path36" /><path
     d="m 350.15028,378.45447 c -0.71667,-3.6125 -3.6125,-5.44167 -7.15834,-5.44167 -6.0875,0 -8.66251,5.0125 -8.66251,10.35001 0,5.83333 2.57501,10.70001 8.70001,10.70001 4.47084,0 7.05417,-3.15001 7.37501,-7.37084 h 3.39583 c -0.64166,6.37083 -4.6125,10.2375 -11.05834,10.2375 -7.94584,0 -11.81251,-5.875 -11.81251,-13.32084 0,-7.40834 4.225,-13.45418 12.10001,-13.45418 5.32917,0 9.73334,2.85834 10.52501,8.30001 z"
     style="fill:#405c59;fill-rule:nonzero;stroke-width:4.16667"
     id="path38" /><path
     d="m 372.39613,394.06282 c 6.22501,0 8.84167,-5.37084 8.84167,-10.52085 0,-5.15833 -2.61666,-10.52917 -8.84167,-10.52917 -6.22917,0 -8.84167,5.37084 -8.84167,10.52917 0,5.15001 2.6125,10.52085 8.84167,10.52085 z m 0,-23.90836 c 8.12501,0 12.24168,6.44167 12.24168,13.38751 0,6.94168 -4.11667,13.38751 -12.24168,13.38751 -8.12501,0 -12.24168,-6.44583 -12.24168,-13.38751 0,-6.94584 4.11667,-13.38751 12.24168,-13.38751 z"
     style="fill:#405c59;fill-rule:nonzero;stroke-width:4.16667"
     id="path40" /><path
     d="m 392.30448,370.75863 h 3.62084 l 13.45417,20.72502 h 0.075 v -20.72502 h 3.22084 v 25.55835 h -3.725 l -13.35001,-20.50835 h -0.0708 v 20.50835 h -3.225 z"
     style="fill:#405c59;fill-rule:nonzero;stroke-width:4.16667"
     id="path42" /><path
     d="m 436.52952,378.24197 c -0.39584,-3.65417 -2.82917,-5.22917 -6.33334,-5.22917 -2.86667,0 -5.72501,1.0375 -5.72501,4.36667 0,3.15 4.07917,3.61667 8.19168,4.55 4.08333,0.92917 8.1625,2.35834 8.1625,7.37501 0,5.4375 -5.33333,7.625 -9.98334,7.625 -5.72917,0 -10.56251,-2.79166 -10.56251,-9.025 h 3.22084 c 0,4.29583 3.58333,6.15834 7.44584,6.15834 3.07917,0 6.47917,-0.96667 6.47917,-4.65418 0,-3.50833 -4.08334,-4.11667 -8.15834,-5.0125 -4.08334,-0.89583 -8.20001,-2.075 -8.20001,-6.7625 0,-5.19168 4.62084,-7.47918 9.27084,-7.47918 5.22918,0 9.20001,2.46667 9.41668,8.08751 z"
     style="fill:#405c59;fill-rule:nonzero;stroke-width:4.16667"
     id="path44" /><path
     d="m 454.30036,373.6253 h -8.51667 v -2.86667 h 20.43752 v 2.86667 h -8.52084 v 22.69168 h -3.40001 z"
     style="fill:#405c59;fill-rule:nonzero;stroke-width:4.16667"
     id="path46" /><path
     d="m 483.10039,382.53364 c 3.18333,0 5.90417,-0.82083 5.90417,-4.54167 0,-2.50834 -1.35834,-4.36667 -4.54584,-4.36667 h -8.44584 v 8.90834 z m -10.49168,-11.77501 h 12.02918 c 4.79583,0 7.76667,2.6125 7.76667,6.69584 0,3.075 -1.35833,5.61667 -4.4375,6.475 v 0.075 c 2.97083,0.57084 3.57917,2.75417 3.82917,5.26251 0.21666,2.50417 0.0708,5.29584 1.50416,7.05 h -3.79583 c -0.9625,-1.0375 -0.42917,-3.79167 -0.92917,-6.3 -0.35833,-2.50417 -0.96667,-4.61667 -4.25834,-4.61667 h -8.30417 v 10.91667 h -3.40417 z"
     style="fill:#405c59;fill-rule:nonzero;stroke-width:4.16667"
     id="path48" /><path
     d="m 521.08792,387.07948 c 0,6.44583 -3.68751,9.85 -10.05834,9.85 -6.58334,0 -10.48751,-3.04583 -10.48751,-9.85 v -16.32085 h 3.40417 v 16.32085 c 0,4.5125 2.575,6.98334 7.08334,6.98334 4.29583,0 6.6625,-2.47084 6.6625,-6.98334 v -16.32085 h 3.39584 z"
     style="fill:#405c59;fill-rule:nonzero;stroke-width:4.16667"
     id="path50" /><path
     d="m 548.05877,378.45447 c -0.71667,-3.6125 -3.6125,-5.44167 -7.1625,-5.44167 -6.08751,0 -8.65834,5.0125 -8.65834,10.35001 0,5.83333 2.57083,10.70001 8.7,10.70001 4.46667,0 7.05001,-3.15001 7.37084,-7.37084 h 3.4 c -0.64583,6.37083 -4.61667,10.2375 -11.0625,10.2375 -7.94584,0 -11.81251,-5.875 -11.81251,-13.32084 0,-7.40834 4.225,-13.45418 12.10417,-13.45418 5.32917,0 9.73334,2.85834 10.52084,8.30001 z"
     style="fill:#405c59;fill-rule:nonzero;stroke-width:4.16667"
     id="path52" /><path
     d="m 565.28379,373.6253 h -8.51251 v -2.86667 h 20.43752 v 2.86667 h -8.52085 v 22.69168 h -3.40416 z"
     style="fill:#405c59;fill-rule:nonzero;stroke-width:4.16667"
     id="path54" /><rect
     x="583.73798"
     y="370.75864"
     width="3.4041693"
     height="25.558353"
     style="fill:#405c59;fill-rule:nonzero;stroke-width:4.16667"
     id="rect56" /><path
     d="m 607.24632,394.06282 c 6.225,0 8.84167,-5.37084 8.84167,-10.52085 0,-5.15833 -2.61667,-10.52917 -8.84167,-10.52917 -6.22917,0 -8.84167,5.37084 -8.84167,10.52917 0,5.15001 2.6125,10.52085 8.84167,10.52085 z m 0,-23.90836 c 8.12501,0 12.23751,6.44167 12.23751,13.38751 0,6.94168 -4.1125,13.38751 -12.23751,13.38751 -8.12501,0 -12.24584,-6.44583 -12.24584,-13.38751 0,-6.94584 4.12083,-13.38751 12.24584,-13.38751 z"
     style="fill:#405c59;fill-rule:nonzero;stroke-width:4.16667"
     id="path58" /><path
     d="m 627.15884,370.75863 h 3.61666 l 13.45835,20.72502 h 0.0708 v -20.72502 h 3.225 v 25.55835 h -3.725 l -13.35001,-20.50835 h -0.0708 v 20.50835 h -3.225 z"
     style="fill:#405c59;fill-rule:nonzero;stroke-width:4.16667"
     id="path60" /><path
     d="M 13.887511,432.25451 H 639.75885"
     style="fill:none;stroke:#405c59;stroke-width:18.2917px"
     id="path62" /><path
     d="M 17.137514,137.21261 79.962564,75.645894 H 654.75052 v 61.566716 z"
     style="fill:#e41837;fill-rule:nonzero;stroke-width:4.16667"
     id="path108" /><path
     d="M 654.75052,0.2500002 H 157.86679 L 96.300077,61.191716 H 654.75052 Z"
     style="fill:#e41837;fill-opacity:1;fill-rule:nonzero;stroke-width:4.16667"
     id="path110" /></g>
</svg>
