<?xml version="1.0" encoding="UTF-8" standalone="no"?>
<svg id="gelder-logo" viewBox="0 0 637.61202 133.07126" width="637.612" height="162" version="1.1"
    xmlns="http://www.w3.org/2000/svg"
    xmlns:svg="http://www.w3.org/2000/svg">
    <defs id="defs9" />
    <path style="fill:currentColor;fill-rule:nonzero;stroke-width:4.32519px" d="M 637.612,0 H 140.73 L 79.162,65.667881 h 558.45 z M 0,147.58407 62.825,81.242749 h 574.787 v 66.341321 z" id="path2" />
    <g aria-label="Gelder" id="text900" style="font-size:66.6667px;font-family:'DM Sans';-inkscape-font-specification:'DM Sans, @opsz=40.0,wght=700';font-variation-settings:'opsz' 40, 'wght' 700;fill:#fcfaf7;stroke-linecap:round;stroke-linejoin:round">
        <path id="path962" d="M 321.78218,55.204521 V 22.137837 h 7.66667 l 0.8,7.26667 h 0.26667 q 1.46666,-3.533335 3.2,-5.200002 1.73333,-1.733335 3.93333,-2.266668 2.26667,-0.600001 5.06667,-0.600001 v 9.533339 h -2.46667 q -2.26666,0 -4.06667,0.533333 -1.73333,0.466667 -2.93333,1.600001 -1.2,1.066668 -1.86667,2.866669 -0.6,1.8 -0.6,4.333335 v 15.000008 z m -20.73337,0.800001 q -5.06667,0 -9.00001,-2.133335 -3.86667,-2.133334 -6.06667,-6.000003 -2.2,-3.866669 -2.2,-8.866671 0,-5.200003 2.13334,-9.133339 2.2,-4.000002 6.06667,-6.26667 3.93333,-2.266668 9.06667,-2.266668 5,0 8.73333,2.133335 3.73334,2.133334 5.86667,5.86667 2.13334,3.666668 2.13334,8.333337 0,0.666668 -0.0667,1.533335 0,0.8 -0.0667,1.666667 h -27.46669 v -5.533336 h 18.46668 q -0.2,-3.133335 -2.33333,-5.000003 -2.06667,-1.866667 -5.20001,-1.866667 -2.33333,0 -4.26667,1.066667 -1.93333,1 -3.06666,3.133335 -1.13334,2.066668 -1.13334,5.266669 v 1.933335 q 0,2.733334 1.06667,4.733336 1.06667,1.933334 2.93333,3.000001 1.93334,1.066667 4.33334,1.066667 2.46667,0 4.13334,-1.066667 1.66666,-1.133334 2.53333,-2.866668 h 9.13334 q -0.93334,3.133335 -3.13334,5.733336 -2.2,2.533335 -5.4,4.066669 -3.2,1.466668 -7.2,1.466668 z m -42.46673,0 q -4.66667,0 -8.13334,-2.200002 -3.46667,-2.266667 -5.4,-6.200003 -1.93333,-3.933335 -1.93333,-8.933338 0,-5.000003 1.93333,-8.933338 1.93333,-3.933336 5.46667,-6.133337 3.53333,-2.266668 8.4,-2.266668 3.86667,0 6.66667,1.533335 2.86667,1.466667 4.53334,3.533335 V 8.5378296 h 9 V 55.204521 h -7.6 l -0.46667,-5.800003 h -0.26666 q -1.26667,2.066668 -3.06667,3.533335 -1.8,1.466668 -4.06667,2.266668 -2.26667,0.800001 -5.06667,0.800001 z m 2.66667,-7.400004 q 2.73333,0 4.73333,-1.266668 2.06667,-1.266667 3.13334,-3.466668 1.13333,-2.266668 1.13333,-5.26667 0,-2.933335 -1.13333,-5.133336 -1.06667,-2.266668 -3.13334,-3.533335 -2.06666,-1.266667 -4.8,-1.266667 -2.66667,0 -4.73333,1.266667 -2,1.266667 -3.13334,3.533335 -1.06667,2.200001 -1.06667,5.133336 0,3.000002 1.06667,5.26667 1.13334,2.200001 3.13334,3.466668 2.06666,1.266668 4.8,1.266668 z M 229.4487,55.204521 V 8.5378296 h 9.00001 V 55.204521 Z m -21.06669,0.800001 q -5.06667,0 -9.00001,-2.133335 -3.86667,-2.133334 -6.06667,-6.000003 -2.2,-3.866669 -2.2,-8.866671 0,-5.200003 2.13333,-9.133339 2.20001,-4.000002 6.06667,-6.26667 3.93334,-2.266668 9.06668,-2.266668 5,0 8.73333,2.133335 3.73334,2.133334 5.86667,5.86667 2.13334,3.666668 2.13334,8.333337 0,0.666668 -0.0667,1.533335 0,0.8 -0.0667,1.666667 h -27.46668 v -5.533336 h 18.46668 q -0.2,-3.133335 -2.33334,-5.000003 -2.06666,-1.866667 -5.2,-1.866667 -2.33333,0 -4.26667,1.066667 -1.93333,1 -3.06667,3.133335 -1.13333,2.066668 -1.13333,5.266669 v 1.933335 q 0,2.733334 1.06667,4.733336 1.06667,1.933334 2.93333,3.000001 1.93334,1.066667 4.33334,1.066667 2.46667,0 4.13333,-1.066667 1.66667,-1.133334 2.53334,-2.866668 h 9.13334 q -0.93334,3.133335 -3.13334,5.733336 -2.2,2.533335 -5.4,4.066669 -3.2,1.466668 -7.2,1.466668 z m -46.06664,0 q -6.13334,0 -10.86667,-2.933335 -4.66667,-3.000002 -7.33334,-8.333338 -2.66667,-5.400003 -2.66667,-12.53334 0,-7.200004 2.8,-12.666674 2.86667,-5.533336 8.06667,-8.666671 5.26667,-3.1333348 12.60001,-3.1333348 8.26667,0 13.66667,3.9333358 5.46667,3.933335 7.06667,10.933339 h -10.06667 q -1,-3.066669 -3.73333,-4.800003 -2.73334,-1.800001 -7.00001,-1.800001 -4.53333,0 -7.73333,2.000001 -3.20001,2.000001 -4.86667,5.600003 -1.6,3.600002 -1.6,8.600005 0,5.066669 1.6,8.600004 1.66666,3.533336 4.73333,5.400003 3.13334,1.800001 7.33334,1.800001 6.13334,0 9.26667,-3.266668 3.2,-3.333335 3.8,-8.600005 h -11.46667 v -6.733337 h 20.53335 v 25.800014 h -8.20001 l -0.73333,-7.866671 h -0.26667 q -1.53333,2.733335 -3.73334,4.733336 -2.2,1.933335 -5.06666,2.933335 -2.80001,1.000001 -6.13334,1.000001 z" />
    </g>
    <g aria-label="MILEAGE CLAIMS" id="text904" style="font-size:53.3333px;font-family:'DM Sans';-inkscape-font-specification:'DM Sans, @opsz=40.0';font-variation-settings:'opsz' 40;fill:#fcfaf7;stroke-linecap:round;stroke-linejoin:round">
        <path id="path990" d="m 513.20997,134.77951 q -4.10666,0 -7.14666,-1.49333 -3.04,-1.49333 -4.69333,-4.16 -1.65333,-2.66666 -1.65333,-6.18666 h 4.69333 q 0,2.18666 0.96,4.05333 0.96,1.81333 2.93333,2.93333 1.97333,1.06667 4.96,1.06667 2.4,0 4.21333,-0.69334 1.81333,-0.69333 2.82666,-2.08 1.06667,-1.38666 1.06667,-3.46666 0,-2.08 -0.96,-3.41333 -0.90667,-1.38667 -2.50667,-2.29333 -1.59999,-0.90667 -3.57333,-1.54667 -1.92,-0.69333 -3.94666,-1.38666 -4.85333,-1.70667 -7.14666,-4.10667 -2.24,-2.45333 -2.24,-6.02666 0,-2.82667 1.38666,-5.01333 1.44,-2.240001 4.05333,-3.52 2.66667,-1.28 6.29333,-1.28 3.57334,0 6.18667,1.333333 2.66666,1.333332 4.15999,3.679997 1.49334,2.29333 1.49334,5.33333 h -4.69333 q 0,-1.97333 -0.85334,-3.46666 -0.85333,-1.49334 -2.50666,-2.34667 -1.65333,-0.906665 -4.16,-0.906665 -1.97333,0 -3.57333,0.586665 -1.54667,0.58667 -2.45333,1.86667 -0.85333,1.28 -0.85333,3.30666 0,1.70667 0.69333,2.82667 0.69333,1.12 2.02666,1.97333 1.38667,0.8 3.36,1.6 2.02667,0.74666 4.64,1.70666 2.72,0.96 4.85333,2.29334 2.18666,1.27999 3.41333,3.25333 1.28,1.97333 1.28,5.01333 0,2.72 -1.38667,5.17333 -1.38666,2.4 -4.15999,3.89333 -2.77334,1.49333 -6.98667,1.49333 z m -54.50661,-0.64 V 96.8062 h 6.61333 l 11.94666,28.26665 h 0.21333 L 489.37001,96.8062 h 6.61333 v 37.33331 h -4.48 v -30.55998 h -0.21333 l -10.77333,25.22665 h -6.29333 l -10.82666,-25.22665 h -0.21333 v 30.55998 z m -9.27997,0 V 96.8062 h 4.48 v 37.33331 z m -33.81332,0 12.74665,-37.33331 h 6.93333 l 12.53333,37.33331 h -4.74666 l -11.14666,-34.02665 h -0.21334 l -11.41332,34.02665 z m 6.29333,-11.67999 1.27999,-3.62667 h 16.90666 l 1.28,3.62667 z m -29.22661,11.67999 V 96.8062 h 4.48 v 33.75998 h 17.38666 v 3.57333 z m -19.83994,0.64 q -5.49333,0 -9.49333,-2.4 -4,-2.45333 -6.18666,-6.77333 -2.13333,-4.37333 -2.13333,-10.13332 0,-5.76 2.13333,-10.08 2.18666,-4.37333 6.18666,-6.773328 4,-2.453332 9.49333,-2.453332 6.45333,0 10.45333,3.039999 3.99999,3.040001 5.11999,8.586661 h -4.95999 q -0.85334,-3.46666 -3.46667,-5.54666 -2.61333,-2.08 -7.14666,-2.08 -4,0 -6.98666,1.86666 -2.98667,1.81334 -4.64,5.28 -1.6,3.41333 -1.6,8.16 0,4.74666 1.6,8.21332 1.65333,3.41334 4.64,5.28 2.98666,1.81333 6.98666,1.81333 4.53333,0 7.19999,-2.02666 2.72,-2.08 3.57334,-5.44 h 4.79999 q -1.12,5.38666 -5.11999,8.42666 -4,3.04 -10.45333,3.04 z m -55.03999,-0.64 V 96.8062 h 23.09332 v 3.68 h -18.61332 v 13.01332 h 17.01332 v 3.62667 h -17.01332 v 13.33332 h 18.61332 v 3.68 z m -22.45337,0.64 q -5.17333,0 -9.01332,-2.4 -3.84,-2.45333 -5.97333,-6.77333 -2.08,-4.31999 -2.08,-10.07999 0,-5.70666 2.18666,-10.08 2.24,-4.37333 6.29333,-6.826658 4.10667,-2.453332 9.65333,-2.453332 6.29333,0 10.50666,3.039999 4.21333,2.986661 5.38666,8.373331 h -5.17333 q -0.74666,-3.36 -3.51999,-5.33333 -2.77334,-1.97334 -7.2,-1.97334 -4.10666,0 -7.2,1.86667 -3.03999,1.81333 -4.69333,5.22666 -1.65333,3.41334 -1.65333,8.16 0,4.74666 1.65333,8.21333 1.65334,3.41333 4.58667,5.22666 2.98666,1.81333 6.82666,1.81333 5.97333,0 9.01333,-3.51999 3.04,-3.52 3.46666,-9.54667 h -10.77332 v -3.51999 h 15.35999 v 19.94665 h -3.94667 l -0.53333,-7.62666 h -0.21333 q -1.44,2.66666 -3.36,4.53333 -1.92,1.86667 -4.32,2.82666 -2.34666,0.90667 -5.28,0.90667 z m -49.27993,-0.64 12.74666,-37.33331 h 6.93333 l 12.53332,37.33331 h -4.74666 l -11.14666,-34.02665 h -0.21334 l -11.41332,34.02665 z m 6.29333,-11.67999 1.28,-3.62667 h 16.90665 l 1.28,3.62667 z M 221.1036,134.13951 V 96.8062 h 23.09332 v 3.68 H 225.5836 v 13.01332 h 17.01332 v 3.62667 H 225.5836 v 13.33332 h 18.61332 v 3.68 z m -25.06661,0 V 96.8062 h 4.48 v 33.75998 h 17.38665 v 3.57333 z m -9.27999,0 V 96.8062 h 4.48 v 37.33331 z m -42.07995,0 V 96.8062 h 6.61333 l 11.94666,28.26665 h 0.21333 L 175.3437,96.8062 h 6.61333 v 37.33331 h -4.48 v -30.55998 h -0.21333 l -10.77333,25.22665 h -6.29333 l -10.82666,-25.22665 h -0.21333 v 30.55998 z" />
    </g>
</svg>
