<?xml version="1.0" encoding="UTF-8"?>
<!-- Created with Inkscape (http://www.inkscape.org/) -->
<svg width="512" height="512" version="1.1" viewBox="0 0 512 512" xmlns="http://www.w3.org/2000/svg">
 <path d="m96 10.667h320c47.275 0 85.333 38.059 85.333 85.333v320c0 47.275-38.059 85.333-85.333 85.333h-320c-47.275 0-85.333-38.059-85.333-85.333v-320c0-47.275 38.059-85.333 85.333-85.333z" fill="#405c59" stroke="#405c59" stroke-width="21.333"/>
 <g clip-rule="evenodd" stroke-linecap="square" stroke-miterlimit="2">
  <path d="m421.25 83.967-23.611 29.833 28.423 0.49686 12.142-30.033z" fill="#fff" stroke-width="1.2668"/>
  <path d="m151 281.96-121.7 119.3h449v-119.3z" fill="#e41837" stroke-width="8.0731"/>
  <path d="m290.42 293.88-77.051 89.791h79.905l44.807-89.791z" fill="#fff" stroke-width="3.6597"/>
  <path d="m301.96 135.88-119.3 118.09h295.65v-118.09z" fill="#e41837" stroke-width="8.0731"/>
  <path d="m375.21 157.37-56.861 70.562h48.55l37.27-70.562z" fill="#fff" stroke-width="2.5289"/>
 </g>
 <path d="m96 10.667h320c47.275 0 85.333 38.059 85.333 85.333v320c0 47.275-38.059 85.333-85.333 85.333h-320c-47.275 0-85.333-38.059-85.333-85.333v-320c0-47.275 38.059-85.333 85.333-85.333z" fill-opacity="0" stroke="#6a9792" stroke-width="21.333"/>
</svg>
